<?xml version="1.0" standalone="no"?>
<!DOCTYPE svg PUBLIC "-//W3C//DTD SVG 20010904//EN"
 "http://www.w3.org/TR/2001/REC-SVG-20010904/DTD/svg10.dtd">
<svg version="1.0" xmlns="http://www.w3.org/2000/svg"
 width="512.000000pt" height="512.000000pt" viewBox="0 0 512.000000 512.000000"
 preserveAspectRatio="xMidYMid meet">
<metadata>
Created by potrace 1.11, written by Peter Selinger 2001-2013
</metadata>
<g transform="translate(0.000000,512.000000) scale(0.100000,-0.100000)"
fill="#000000" stroke="none">
<path d="M1535 5084 c-11 -3 -47 -9 -80 -16 -183 -34 -397 -167 -541 -334 -51
-59 -145 -188 -176 -240 -9 -16 -39 -67 -67 -114 -70 -115 -216 -414 -237
-486 -25 -83 -23 -195 4 -261 l22 -53 -49 -148 c-34 -101 -54 -185 -65 -263
-52 -392 -54 -435 -44 -934 7 -327 11 -387 39 -605 23 -175 48 -290 86 -400
31 -89 40 -108 64 -135 18 -20 44 -55 92 -125 27 -39 91 -100 106 -100 5 0 21
-15 35 -33 45 -56 54 -63 156 -116 81 -42 103 -50 119 -42 45 24 125 -1 150
-48 7 -12 29 -23 63 -31 29 -6 62 -13 74 -16 17 -4 23 0 28 19 9 39 52 84 86
90 39 8 94 -18 109 -50 14 -31 14 -36 -3 -30 -10 4 -12 0 -9 -14 4 -13 -2 -28
-16 -40 -11 -11 -21 -24 -21 -29 0 -17 20 -21 35 -6 13 12 22 13 76 0 34 -8
65 -17 70 -20 13 -7 11 -64 -1 -64 -6 0 -10 -10 -9 -23 5 -51 1 -57 -28 -46
-14 5 -32 8 -38 5 -16 -6 -28 4 -42 35 -8 20 -9 29 0 38 8 8 8 11 0 11 -19 0
-71 -49 -88 -82 -19 -39 -19 -38 8 -38 13 0 36 -13 52 -30 l28 -29 28 23 c16
13 46 27 68 31 34 6 40 11 43 33 2 21 8 26 23 23 11 -2 41 -5 67 -8 43 -4 49
-3 59 21 14 29 73 61 109 58 14 -1 37 -11 52 -22 15 -11 33 -20 41 -20 7 0 56
-11 108 -25 351 -93 414 -107 516 -117 140 -14 217 -3 318 47 73 36 74 36 200
36 l126 0 29 -31 c23 -25 36 -30 74 -30 57 0 95 19 356 173 107 64 217 128
243 144 106 62 375 244 429 290 137 117 264 291 315 430 37 103 80 322 92 472
19 238 5 1275 -19 1431 -6 36 -17 119 -26 185 -18 145 -46 264 -86 365 -30 75
-30 75 -13 122 15 43 15 52 1 100 -17 60 -140 273 -224 392 -149 208 -331 352
-572 454 -184 77 -406 125 -640 138 -58 3 -154 10 -215 15 -207 17 -520 39
-705 49 -102 6 -246 15 -320 20 -131 10 -424 12 -465 4z m285 -24 c144 -15
489 -38 845 -55 498 -24 665 -40 665 -64 0 -9 -40 -100 -102 -231 -22 -47 -67
-144 -99 -217 -70 -157 -134 -287 -162 -326 -11 -16 -60 -108 -109 -205 -49
-98 -106 -208 -126 -245 l-35 -69 -156 7 c-86 3 -181 11 -211 16 -61 10 -343
36 -490 45 -52 3 -97 7 -101 9 -3 2 -68 11 -145 20 -76 8 -183 20 -238 27
l-98 12 -19 -25 c-11 -13 -47 -73 -80 -134 -34 -60 -77 -136 -97 -168 l-34
-59 -52 7 c-97 13 -231 44 -300 70 -85 32 -173 92 -184 125 -52 150 -55 188
-18 313 46 160 290 604 397 721 25 28 59 72 76 97 92 134 325 271 537 314 126
26 200 30 336 15z m2274 -355 c49 -31 116 -83 149 -115 73 -71 70 -79 -39
-111 -41 -12 -81 -30 -87 -40 -7 -9 -26 -19 -42 -21 -24 -2 -29 -7 -27 -24 3
-23 -21 -49 -37 -40 -6 4 -4 22 6 49 11 28 17 76 17 142 1 103 -1 110 -53 198
l-23 37 24 -9 c13 -5 64 -35 112 -66z m-3579 -1191 c11 -8 44 -30 74 -49 l54
-33 -71 -46 c-42 -26 -88 -67 -112 -98 -66 -85 -70 -89 -80 -83 -19 12 82 325
105 325 6 0 20 -7 30 -16z m3860 -66 c3 -11 41 -1109 44 -1295 1 -41 -3 -66
-13 -76 -8 -7 -61 -40 -118 -72 -57 -32 -126 -73 -155 -91 -28 -18 -143 -79
-255 -135 -112 -56 -222 -115 -245 -130 -23 -16 -46 -29 -52 -29 -7 0 -11 39
-11 113 0 161 -27 757 -45 981 -8 105 -18 227 -21 272 l-7 80 51 33 c74 47
331 172 447 216 55 21 159 62 230 92 144 58 144 58 150 41z m-1217 -33 c-6
-14 -15 -25 -20 -25 -11 0 -10 7 2 31 16 28 32 23 18 -6z m-2523 -25 c-3 -5
-10 -10 -16 -10 -5 0 -9 5 -9 10 0 6 7 10 16 10 8 0 12 -4 9 -10z m2465 -54
c0 -3 -4 -8 -10 -11 -5 -3 -10 -1 -10 4 0 6 5 11 10 11 6 0 10 -2 10 -4z m-40
-46 c0 -5 -2 -10 -4 -10 -2 0 -12 -3 -20 -6 -12 -5 -15 -2 -10 10 7 17 34 22
34 6z m190 -26 c0 -2 -6 -13 -12 -24 -11 -17 -10 -22 1 -29 11 -7 12 -46 7
-217 -8 -243 -12 -270 -32 -253 -8 6 -14 24 -14 39 0 15 -10 38 -24 51 -13 13
-32 44 -43 69 -28 64 -119 153 -227 224 -69 46 -65 51 49 61 44 4 92 13 107
21 15 8 35 14 45 14 10 1 38 11 63 23 43 21 80 31 80 21z m-610 -114 c0 -5 -2
-10 -4 -10 -3 0 -8 5 -11 10 -3 6 -1 10 4 10 6 0 11 -4 11 -10z m-1215 -205
c61 -8 151 -22 200 -30 50 -9 117 -20 150 -25 33 -5 161 -27 285 -49 124 -21
277 -47 340 -56 63 -9 118 -19 123 -22 4 -2 7 -12 7 -22 0 -10 3 -21 7 -25 4
-4 8 -53 9 -109 2 -56 10 -239 18 -407 9 -168 16 -319 16 -336 0 -23 6 -34 26
-42 23 -11 25 -17 22 -65 -3 -49 -4 -52 -29 -49 l-26 2 0 -212 c0 -309 -17
-484 -60 -620 -4 -13 0 -18 16 -18 20 0 22 -5 19 -42 -3 -42 -4 -43 -37 -41
-37 1 -54 18 -45 45 5 16 -1 17 -70 12 -57 -5 -103 -1 -193 16 -250 47 -520
102 -573 115 -30 8 -110 26 -178 40 -104 22 -219 57 -294 90 -14 5 -18 2 -18
-14 0 -27 -24 -37 -56 -23 -19 9 -24 19 -24 51 0 22 5 41 12 43 8 3 7 45 -6
164 -33 300 -45 449 -46 549 l0 101 -30 11 c-28 10 -30 15 -30 62 0 49 1 51
28 51 l27 0 0 222 c0 123 2 279 4 348 l3 125 -38 5 c-51 7 -63 16 -80 56 -20
47 -18 90 5 106 25 17 363 13 516 -7z m1441 -17 c-4 -13 -9 -45 -12 -73 -7
-62 -11 -75 -24 -75 -6 0 -10 29 -10 72 0 63 2 69 13 53 13 -17 14 -16 20 14
4 17 9 31 13 31 3 0 3 -10 0 -22z m109 -198 c-3 -5 -13 -10 -21 -10 -8 0 -12
5 -9 10 3 6 13 10 21 10 8 0 12 -4 9 -10z m-1225 -2236 c0 -16 -16 -19 -25 -4
-8 13 4 32 16 25 5 -4 9 -13 9 -21z m58 2 c3 -12 -1 -17 -10 -14 -7 3 -15 13
-16 22 -3 12 1 17 10 14 7 -3 15 -13 16 -22z"/>
<path d="M1810 2606 l0 -114 -62 -31 c-35 -17 -112 -51 -173 -77 -60 -25 -183
-80 -272 -120 -90 -41 -181 -81 -203 -90 l-40 -16 0 -172 c0 -94 5 -223 10
-286 5 -63 15 -189 21 -280 16 -257 13 -245 87 -280 47 -22 62 -26 62 -15 0
25 30 17 40 -10 5 -14 11 -25 14 -25 9 0 46 72 41 81 -4 5 -1 9 4 9 6 0 11 -4
11 -9 0 -19 69 13 82 38 15 29 42 53 73 63 18 5 18 6 -3 7 -13 1 -22 6 -20 12
2 6 6 9 8 7 3 -1 23 8 44 22 22 13 36 19 32 12 -4 -6 5 -17 21 -26 24 -13 25
-15 8 -16 -19 -1 -18 -2 3 -12 13 -6 21 -17 18 -24 -3 -8 0 -28 6 -45 9 -26 8
-33 -5 -40 -8 -5 -26 -26 -38 -47 -12 -20 -24 -38 -25 -40 -1 -2 -12 1 -23 8
-17 8 -21 8 -21 -4 0 -8 -9 -18 -20 -21 -28 -9 -17 -21 27 -30 21 -4 63 -15
93 -26 30 -10 71 -19 91 -19 32 0 36 3 32 19 -7 26 23 74 57 95 33 19 100 21
119 4 11 -10 14 -10 18 0 7 17 43 15 43 -3 0 -9 -7 -18 -16 -22 -11 -4 -13
-13 -9 -33 4 -16 0 -43 -9 -64 -8 -19 -11 -38 -7 -40 4 -3 47 -7 96 -11 58 -4
107 -14 137 -27 l47 -21 31 27 c34 28 85 35 121 15 15 -7 24 -7 34 1 10 8 15
8 21 -1 4 -7 2 -15 -4 -17 -14 -4 -16 -32 -3 -32 24 0 71 24 71 36 0 8 5 23
12 33 9 15 9 23 -1 35 -8 9 -19 16 -26 16 -17 0 -23 17 -17 48 3 15 10 21 18
18 18 -7 44 3 44 18 0 6 -14 22 -30 36 -38 31 -33 54 16 75 46 19 47 62 3 99
-17 14 -35 26 -40 26 -5 0 -9 7 -9 15 0 9 -9 15 -24 15 -15 0 -34 12 -51 33
-65 80 -64 79 -127 75 -63 -5 -74 7 -41 44 9 11 11 18 5 18 -7 0 -12 -4 -12
-10 0 -22 -43 -8 -76 25 -36 37 -69 44 -106 24 -22 -12 -68 -4 -68 12 0 5 11
21 26 35 21 22 33 25 69 22 35 -2 45 0 49 14 3 14 12 17 38 14 47 -5 49 -32 3
-40 -27 -5 -35 -11 -31 -22 3 -9 6 -18 6 -20 0 -2 8 -4 18 -4 10 0 26 -6 36
-13 25 -18 59 -10 88 20 21 23 22 25 5 34 -24 14 -21 36 8 64 35 36 96 35 124
-1 27 -34 26 -42 -4 -56 l-25 -11 27 -29 c33 -34 46 -35 67 -3 20 31 20 45 1
45 -24 0 -28 25 -11 58 16 30 34 42 66 42 10 0 21 4 24 9 7 10 -21 777 -30
833 -5 35 -7 36 -62 47 -31 6 -91 18 -132 26 -63 13 -484 85 -496 85 -2 0 -4
-51 -4 -114z m385 -716 c2 -21 1 -22 -12 -5 -16 23 -17 38 -1 33 6 -2 12 -15
13 -28z m-106 -386 c13 -9 29 -32 37 -50 9 -21 21 -34 32 -34 35 0 63 -30 60
-63 -3 -27 -8 -32 -37 -38 -39 -8 -94 -58 -73 -66 30 -11 61 -50 67 -84 6 -32
3 -40 -22 -63 -36 -34 -45 -33 -78 9 -14 20 -44 47 -65 60 -36 23 -41 23 -72
11 -36 -15 -52 -11 -100 30 -15 12 -32 24 -38 26 -8 2 -8 11 1 31 14 32 75 71
97 62 9 -3 18 -1 22 4 11 19 64 -61 63 -96 l-1 -34 33 26 c19 14 40 25 47 25
9 1 8 5 -4 13 -9 7 -20 25 -23 40 -4 15 -12 27 -19 27 -19 1 -96 80 -96 99 0
11 -7 21 -15 25 -8 3 -15 10 -15 16 0 5 7 10 15 10 8 0 15 -6 15 -12 0 -10 2
-10 9 0 25 40 119 55 160 26z m-225 -54 l20 -20 -34 -33 c-19 -18 -40 -41 -46
-52 -10 -17 -13 -16 -53 24 -39 39 -46 42 -78 36 -19 -3 -41 -9 -50 -12 -13
-5 -13 -2 -5 14 12 21 68 50 78 40 4 -3 23 3 43 14 43 24 95 20 125 -11z m406
-41 c0 -3 12 -4 26 -1 21 4 25 1 22 -14 -5 -28 -78 -32 -78 -4 0 10 -3 26 -6
35 -6 15 -4 15 15 4 11 -8 21 -17 21 -20z m-592 -90 c-2 -6 -8 -10 -13 -10 -5
0 -11 4 -13 10 -2 6 4 11 13 11 9 0 15 -5 13 -11z m646 -56 c15 -14 25 -32 22
-39 -6 -14 62 -53 82 -47 6 3 12 1 12 -4 0 -8 -17 -23 -74 -65 l-28 -21 23
-18 c15 -11 32 -16 44 -12 17 5 18 4 8 -9 -7 -8 -10 -18 -6 -21 3 -4 -1 -9
-10 -13 -9 -3 -24 1 -32 10 -9 9 -26 16 -37 16 -11 0 -22 8 -25 20 -3 11 -22
30 -42 42 -32 20 -34 23 -14 26 46 7 66 82 39 145 -12 25 7 21 38 -10z m-134
-29 c0 -8 -4 -12 -10 -9 -5 3 -10 10 -10 16 0 5 5 9 10 9 6 0 10 -7 10 -16z
m-490 -32 c0 -13 -12 -22 -22 -16 -10 6 -1 24 13 24 5 0 9 -4 9 -8z m320 -92
c0 -5 -4 -10 -9 -10 -6 0 -13 5 -16 10 -3 6 1 10 9 10 9 0 16 -4 16 -10z
m-352 -12 c-3 -7 -11 -13 -18 -13 -7 0 -15 6 -17 13 -3 7 4 12 17 12 13 0 20
-5 18 -12z m582 -46 c0 -13 -12 -22 -22 -16 -10 6 -1 24 13 24 5 0 9 -4 9 -8z
m-50 -17 c0 -8 -9 -15 -20 -15 -11 0 -20 7 -20 15 0 8 9 15 20 15 11 0 20 -7
20 -15z m-90 -55 c0 -5 -4 -10 -10 -10 -5 0 -10 5 -10 10 0 6 5 10 10 10 6 0
10 -4 10 -10z"/>
<path d="M2517 1433 c-11 -10 -8 -43 3 -43 6 0 10 11 10 25 0 26 -2 29 -13 18z"/>
<path d="M1350 553 c-13 -15 -12 -16 4 -10 10 4 22 7 27 7 6 0 7 5 4 10 -9 14
-18 12 -35 -7z"/>
<path d="M1425 550 c3 -5 11 -10 16 -10 6 0 7 5 4 10 -3 6 -11 10 -16 10 -6 0
-7 -4 -4 -10z"/>
<path d="M1570 434 c0 -8 5 -12 10 -9 6 4 8 11 5 16 -9 14 -15 11 -15 -7z"/>
<path d="M1819 393 c-2 -32 3 -58 11 -61 5 -2 6 -10 3 -18 -3 -8 1 -21 8 -30
11 -14 15 -12 25 19 10 30 10 41 -4 71 -17 38 -41 48 -43 19z"/>
<path d="M1131 374 c-23 -29 -29 -101 -11 -134 20 -38 45 -42 93 -17 24 13 54
26 66 30 17 4 21 13 21 49 0 23 -4 48 -8 54 -17 25 -60 44 -98 44 -34 0 -47
-5 -63 -26z m69 -54 c0 -5 -4 -10 -10 -10 -5 0 -10 5 -10 10 0 6 5 10 10 10 6
0 10 -4 10 -10z"/>
<path d="M1848 233 c-40 -46 -48 -94 -23 -142 34 -66 129 -61 166 9 29 53 25
93 -12 124 -37 32 -107 36 -131 9z m112 -58 c0 -8 -4 -15 -10 -15 -5 0 -10 7
-10 15 0 8 5 15 10 15 6 0 10 -7 10 -15z m-60 1 c0 -3 -4 -8 -10 -11 -5 -3
-10 -1 -10 4 0 6 5 11 10 11 6 0 10 -2 10 -4z"/>
</g>
</svg>
